<svg width="180" height="180" viewBox="0 0 180 180" fill="none" xmlns="http://www.w3.org/2000/svg">
  <defs>
    <linearGradient id="gradient" x1="0%" y1="0%" x2="100%" y2="100%">
      <stop offset="0%" style="stop-color:#7C3AED;stop-opacity:1" />
      <stop offset="100%" style="stop-color:#3B82F6;stop-opacity:1" />
    </linearGradient>
  </defs>

  <!-- Background circle -->
  <circle cx="90" cy="90" r="85" fill="url(#gradient)" stroke="#FBBF24" stroke-width="6"/>

  <!-- Open book pages -->
  <path d="M55 75 C55 65, 62 55, 90 55 C118 55, 125 65, 125 75 L125 105 C125 115, 118 125, 90 125 C62 125, 55 115, 55 105 Z" fill="#1F2937"/>
  <path d="M57 77 C57 67, 64 57, 90 57 C116 57, 123 67, 123 77 L123 103 C123 113, 116 123, 90 123 C64 123, 57 113, 57 103 Z" fill="#F9FAFB"/>

  <!-- Book spine -->
  <rect x="89.2" y="55" width="1.6" height="70" fill="#374151"/>

  <!-- Cross symbol -->
  <rect x="87" y="65" width="6" height="20" fill="#FBBF24"/>
  <rect x="80" y="73" width="20" height="4" fill="#FBBF24"/>

  <!-- Decorative elements -->
  <circle cx="40" cy="40" r="3" fill="#FBBF24" opacity="0.8"/>
  <circle cx="140" cy="40" r="3" fill="#FBBF24" opacity="0.8"/>
  <circle cx="40" cy="140" r="3" fill="#FBBF24" opacity="0.8"/>
  <circle cx="140" cy="140" r="3" fill="#FBBF24" opacity="0.8"/>
</svg>
