<svg width="32" height="32" viewBox="0 0 32 32" fill="none" xmlns="http://www.w3.org/2000/svg">
  <defs>
    <linearGradient id="gradient" x1="0%" y1="0%" x2="100%" y2="100%">
      <stop offset="0%" style="stop-color:#7C3AED;stop-opacity:1" />
      <stop offset="100%" style="stop-color:#3B82F6;stop-opacity:1" />
    </linearGradient>
  </defs>

  <!-- Background circle -->
  <circle cx="16" cy="16" r="15" fill="url(#gradient)" stroke="#FBBF24" stroke-width="2"/>

  <!-- Open book pages -->
  <path d="M10 12 C10 10, 12 8, 16 8 C20 8, 22 10, 22 12 L22 20 C22 22, 20 24, 16 24 C12 24, 10 22, 10 20 Z" fill="#1F2937"/>
  <path d="M10.5 12 C10.5 10.5, 12 9, 16 9 C20 9, 21.5 10.5, 21.5 12 L21.5 20 C21.5 21.5, 20 23, 16 23 C12 23, 10.5 21.5, 10.5 20 Z" fill="#F9FAFB"/>

  <!-- Book spine -->
  <rect x="15.8" y="8" width="0.4" height="16" fill="#374151"/>

  <!-- Cross symbol -->
  <rect x="15.2" y="10" width="1.6" height="6" fill="#FBBF24"/>
  <rect x="14" y="12" width="4" height="1.6" fill="#FBBF24"/>

  <!-- Decorative elements -->
  <circle cx="8" cy="8" r="1" fill="#FBBF24" opacity="0.8"/>
  <circle cx="24" cy="8" r="1" fill="#FBBF24" opacity="0.8"/>
  <circle cx="8" cy="24" r="1" fill="#FBBF24" opacity="0.8"/>
  <circle cx="24" cy="24" r="1" fill="#FBBF24" opacity="0.8"/>
</svg>
